<?xml version="1.0" encoding="utf-8"?>
<!-- Generator: Adobe Illustrator 16.0.3, SVG Export Plug-In . SVG Version: 6.00 Build 0)  -->
<!DOCTYPE svg PUBLIC "-//W3C//DTD SVG 1.1//EN" "http://www.w3.org/Graphics/SVG/1.1/DTD/svg11.dtd">
<svg version="1.1" id="Layer_1" xmlns="http://www.w3.org/2000/svg" xmlns:xlink="http://www.w3.org/1999/xlink" x="0px" y="0px"
	 width="117.92px" height="33.121px" viewBox="0 0 117.92 33.121" enable-background="new 0 0 117.92 33.121" xml:space="preserve">
<title>logo</title>
<g>
	<g id="g10" transform="matrix(1.25,0,0,-1.25,0,45)">
		<g id="g12">
			<g>
				<defs>
					<rect id="SVGID_1_" x="0.096" y="6.224" width="33.056" height="33.056"/>
				</defs>
				<clipPath id="SVGID_2_">
					<use xlink:href="#SVGID_1_"  overflow="visible"/>
				</clipPath>
				<g id="g14" clip-path="url(#SVGID_2_)">
					<g id="g20" transform="translate(21.2793,31.7202)">
						<path id="path22" fill="#FFFFFF" d="M-7.064,1.111c-8.214,0-10.284,1.469-10.284,0.734s1.469-2.204,2.938-2.204
							c1.47,0,9.55,1.47,14.692-3.672h0c5.142-5.142,3.674-13.223,3.674-14.691s1.468-2.939,2.204-2.939
							c0.734,0-0.735,2.072-0.735,10.285c0,6.611-1.102,7.712-2.938,9.549C0.648,0.009-0.454,1.111-7.064,1.111"/>
					</g>
					<g id="g24" transform="translate(29.5,6.2207)">
						<path id="path26" fill="#FFFFFF" d="M-21.324,7.878c0,0.203,0.164,0.367,0.367,0.367H-2.43c0.203,0,0.367-0.164,0.367-0.367
							c0-0.202-0.164-0.367-0.367-0.367h-18.527C-21.159,7.511-21.324,7.676-21.324,7.878"/>
					</g>
					<g id="g28" transform="translate(29.7793,6.5)">
						<path id="path30" fill="#FFFFFF" d="M-21.809,7.804c-0.201,0-0.367,0.166-0.367,0.366v18.528c0,0.203,0.166,0.367,0.367,0.367
							c0.204,0,0.368-0.164,0.368-0.367V8.171C-21.441,7.97-21.605,7.804-21.809,7.804"/>
					</g>
					<g id="g32" transform="translate(0,36)">
						<path id="path34" fill="#FFFFFF" d="M23.638-2.129l2.586-1.537l1.57-2.619l2.052,6.259L23.638-2.129z"/>
					</g>
					<g id="g36" transform="translate(26.0869,8.6074)">
						<path id="path38" fill="#FFFFFF" d="M-15.404,7.245c0.268,1.394,0.97,2.433,1.567,2.317c0.597-0.113,0.865-1.337,0.596-2.732
							c-0.266-1.395-0.968-2.432-1.566-2.317C-15.404,4.627-15.671,5.852-15.404,7.245"/>
					</g>
					<g id="g40" transform="translate(26.5684,7.5352)">
						<path id="path42" fill="#FFFFFF" d="M-16.239,7.529c0.266,1.395,0.969,2.433,1.567,2.317c0.596-0.112,0.865-1.337,0.596-2.733
							c-0.266-1.394-0.968-2.432-1.566-2.316C-16.239,4.912-16.507,6.136-16.239,7.529"/>
					</g>
					<g id="g44" transform="translate(27.958,6.1465)">
						<path id="path46" fill="#FFFFFF" d="M-18.649,7.898c0.266,1.395,0.968,2.433,1.567,2.317c0.596-0.114,0.864-1.338,0.596-2.733
							c-0.266-1.395-0.969-2.432-1.566-2.316C-18.649,5.281-18.917,6.505-18.649,7.898"/>
					</g>
					<g id="g48" transform="translate(29.3721,4.7324)">
						<path id="path50" fill="#FFFFFF" d="M-21.102,8.273c0.266,1.393,0.968,2.432,1.566,2.317c0.597-0.116,0.864-1.338,0.597-2.734
							c-0.267-1.395-0.97-2.43-1.567-2.317C-21.102,5.654-21.371,6.88-21.102,8.273"/>
					</g>
					<g id="g52" transform="translate(27.3926,9.9131)">
						<path id="path54" fill="#FFFFFF" d="M-17.669,6.898c1.395,0.268,2.434,0.97,2.318,1.566c-0.114,0.598-1.339,0.866-2.732,0.597
							c-1.395-0.266-2.432-0.968-2.318-1.566C-20.287,6.898-19.063,6.631-17.669,6.898"/>
					</g>
					<g id="g56" transform="translate(28.4648,9.4316)">
						<path id="path58" fill="#FFFFFF" d="M-19.528,7.027c1.394,0.266,2.432,0.969,2.317,1.566
							c-0.113,0.596-1.337,0.865-2.733,0.596c-1.393-0.266-2.432-0.969-2.317-1.566C-22.146,7.027-20.922,6.759-19.528,7.027"/>
					</g>
					<g id="g60" transform="translate(29.8535,8.042)">
						<path id="path62" fill="#FFFFFF" d="M-21.937,7.395c1.395,0.266,2.432,0.969,2.317,1.567
							c-0.115,0.596-1.338,0.864-2.733,0.596c-1.395-0.266-2.432-0.968-2.317-1.566C-24.555,7.395-23.332,7.127-21.937,7.395"/>
					</g>
					<g id="g64" transform="translate(31.2676,6.6279)">
						<path id="path66" fill="#FFFFFF" d="M-24.39,7.771c1.393,0.266,2.432,0.969,2.318,1.566c-0.115,0.597-1.339,0.864-2.734,0.597
							c-1.395-0.267-2.432-0.97-2.317-1.567C-27.01,7.771-25.784,7.502-24.39,7.771"/>
					</g>
					<g id="g68" transform="translate(30.3848,7)">
						<path id="path70" fill="#FFFFFF" d="M-4.593,25.936c0.281,0.281,0.736,0.281,1.016,0c0.28-0.28,0.28-0.736,0-1.016
							L-21.841,6.654c-0.281-0.28-0.736-0.28-1.017,0c-0.281,0.282-0.281,0.738,0,1.017L-4.593,25.936z"/>
					</g>
				</g>
			</g>
		</g>
	</g>
	<g>
		<path fill="#FFFFFF" d="M36.786,30.455h1.567v1.569h-1.567V30.455z"/>
		<path fill="#FFFFFF" d="M43.099,22.553v1.349h-1.28v8.122h-1.365v-8.122h-1.28v-1.349H43.099z"/>
		<path fill="#FFFFFF" d="M47.794,30.185c0,1.324-0.655,1.99-1.966,1.994c-1.306,0-1.959-0.665-1.959-1.994v-5.791
			c0-1.326,0.653-1.989,1.959-1.989c1.311,0,1.966,0.663,1.966,1.989V30.185z M46.429,24.394c0-0.426-0.198-0.639-0.595-0.644
			h-0.009c-0.394,0-0.588,0.215-0.588,0.644v5.791c0,0.427,0.196,0.642,0.592,0.642c0.4,0,0.6-0.215,0.6-0.642V24.394z"/>
	</g>
</g>
</svg>
